<?xml version="1.0" encoding="utf-8"?>
<!-- Generator: Adobe Illustrator 17.0.0, SVG Export Plug-In . SVG Version: 6.00 Build 0)  -->
<!DOCTYPE svg PUBLIC "-//W3C//DTD SVG 1.1//EN" "http://www.w3.org/Graphics/SVG/1.1/DTD/svg11.dtd">
<svg version="1.1" id="Layer_1" xmlns="http://www.w3.org/2000/svg" xmlns:xlink="http://www.w3.org/1999/xlink" x="0px" y="0px"
	 width="24px" height="24px" viewBox="0 0 24 24" enable-background="new 0 0 24 24" xml:space="preserve">
<path fill="#FFFFFF" d="M22.628,0H1.372C0.617,0,0,0.617,0,1.372v21.257C0,23.383,0.617,24,1.372,24h21.257
	C23.383,24,24,23.383,24,22.628V1.372C24,0.617,23.383,0,22.628,0z M20.371,13.462h-3.297v8.823h-3.359v-8.823h-2.333v-3.177h2.333
	c0,0,0-1.302,0-2.713c0-2.132,1.378-4.09,4.554-4.09c1.286,0,2.236,0.123,2.236,0.123L20.43,6.572c0,0-0.97-0.009-2.028-0.009
	c-1.145,0-1.329,0.528-1.329,1.404c0,0.108,0,0.146,0,0.148c0,0.245,0,0.842,0,2.171h3.448L20.371,13.462z"/>
</svg>
