<?xml version="1.0" encoding="UTF-8" standalone="no"?>
<svg width="114px" height="114px" viewBox="0 0 114 114" version="1.1" xmlns="http://www.w3.org/2000/svg" xmlns:xlink="http://www.w3.org/1999/xlink" xmlns:sketch="http://www.bohemiancoding.com/sketch/ns">
    <!-- Generator: Sketch 3.5.2 (25235) - http://www.bohemiancoding.com/sketch -->
    <title>Untitled Copy</title>
    <desc>Created with Sketch.</desc>
    <defs>
        <path id="path-1" d="M0,0.614 L113.386,0.614 L113.386,114 L0,114 L0,0.614 Z"></path>
    </defs>
    <g id="Page-1" stroke="none" stroke-width="1" fill="none" fill-rule="evenodd" sketch:type="MSPage">
        <g id="Instagram-Glyph" sketch:type="MSLayerGroup">
            <mask id="mask-2" sketch:name="Clip 2" fill="white">
                <use xlink:href="#path-1"></use>
            </mask>
            <g id="Clip-2"></g>
            <path d="M100.1353,113.8057 L13.0583,113.8057 C5.8473,113.8057 0.0003,107.9567 0.0003,100.7407 L0.0003,13.6717 C0.0003,6.4597 5.8473,0.6137 13.0583,0.6137 L100.1353,0.6137 C107.3473,0.6137 113.1933,6.4597 113.1933,13.6717 L113.1933,100.7407 C113.1933,107.9567 107.3473,113.8057 100.1353,113.8057 L100.1353,113.8057 Z M56.5963,35.4407 C44.5733,35.4407 34.8283,45.1847 34.8283,57.2077 C34.8283,69.2287 44.5733,78.9777 56.5963,78.9777 C68.6193,78.9777 78.3663,69.2287 78.3663,57.2077 C78.3663,45.1847 68.6193,35.4407 56.5963,35.4407 L56.5963,35.4407 Z M100.1353,18.0247 C100.1353,15.6217 98.1853,13.6717 95.7773,13.6717 L82.7193,13.6717 C80.3143,13.6717 78.3663,15.6217 78.3663,18.0247 L78.3663,31.0877 C78.3663,33.4907 80.3143,35.4407 82.7193,35.4407 L95.7773,35.4407 C98.1853,35.4407 100.1353,33.4907 100.1353,31.0877 L100.1353,18.0247 Z M100.1353,48.4977 L90.2813,48.4977 C90.9993,51.2847 91.4233,54.1967 91.4233,57.2077 C91.4233,76.4457 75.8313,92.0367 56.5963,92.0367 C37.3623,92.0367 21.7693,76.4457 21.7693,57.2077 C21.7693,54.1967 22.1953,51.2847 22.9133,48.4977 L13.0583,48.4977 L13.0583,96.3907 C13.0583,98.7917 15.0083,100.7407 17.4163,100.7407 L95.7773,100.7407 C98.1853,100.7407 100.1353,98.7917 100.1353,96.3907 L100.1353,48.4977 Z" id="Fill-1" fill="#FFFFFF" sketch:type="MSShapeGroup" mask="url(#mask-2)"></path>
        </g>
    </g>
</svg>