<?xml version="1.0" encoding="utf-8"?>
<!-- Generator: Adobe Illustrator 17.0.0, SVG Export Plug-In . SVG Version: 6.00 Build 0)  -->
<!DOCTYPE svg PUBLIC "-//W3C//DTD SVG 1.1//EN" "http://www.w3.org/Graphics/SVG/1.1/DTD/svg11.dtd">
<svg version="1.1" id="Layer_1" xmlns="http://www.w3.org/2000/svg" xmlns:xlink="http://www.w3.org/1999/xlink" x="0px" y="0px"
	 width="30px" height="24.38px" viewBox="0 0 30 24.38" enable-background="new 0 0 30 24.38" xml:space="preserve">
<path fill="#FFFFFF" d="M30,2.886c-1.104,0.489-2.29,0.82-3.535,0.969c1.27-0.762,2.246-1.968,2.706-3.406
	c-1.189,0.705-2.506,1.218-3.908,1.493C24.14,0.747,22.54,0,20.77,0c-3.399,0-6.154,2.755-6.154,6.155
	c0,0.483,0.055,0.952,0.159,1.403C9.659,7.301,5.124,4.85,2.088,1.126c-0.53,0.909-0.833,1.967-0.833,3.095
	c0,2.135,1.087,4.019,2.738,5.122C2.985,9.312,2.035,9.035,1.205,8.574C1.205,8.599,1.205,8.625,1.205,8.651
	c0,2.982,2.122,5.47,4.937,6.035c-0.516,0.141-1.06,0.216-1.621,0.216c-0.397,0-0.782-0.039-1.158-0.111
	c0.783,2.445,3.055,4.225,5.749,4.275c-2.107,1.651-4.76,2.635-7.644,2.635c-0.497,0-0.987-0.029-1.468-0.086
	c2.724,1.746,5.96,2.765,9.435,2.765c11.321,0,17.512-9.379,17.512-17.512c0-0.266-0.007-0.532-0.018-0.796
	C28.131,5.204,29.175,4.12,30,2.886z"/>
</svg>
